<?xml version="1.0" encoding="UTF-8"?>
<svg xmlns="http://www.w3.org/2000/svg" xmlns:xlink="http://www.w3.org/1999/xlink" viewBox="0 0 100 100" width="100px" height="100px">
<g id="surface596697">
<path style=" stroke:none;fill-rule:nonzero;fill:rgb(21.960784%,50.196081%,100%);fill-opacity:1;" d="M 22 8 C 14.203125 8 8 14.203125 8 22 L 8 78 C 8 85.796875 14.203125 92 22 92 L 78 92 C 85.796875 92 92 85.796875 92 78 L 92 30 L 88 34.625 L 88 78 C 88 83.601562 83.601562 88 78 88 L 22 88 C 16.398438 88 12 83.601562 12 78 L 12 22 C 12 16.398438 16.398438 12 22 12 L 74.8125 12 L 78 8 Z M 86.5 15.5 L 47.8125 61.125 L 31.5625 45.9375 L 28.8125 48.875 L 46.625 65.4375 L 48.1875 66.875 L 49.5 65.3125 L 89.5 18.0625 Z M 86.5 15.5 "/>
</g>
</svg>
