<?xml version="1.0" encoding="UTF-8"?>
<svg xmlns="http://www.w3.org/2000/svg" xmlns:xlink="http://www.w3.org/1999/xlink" viewBox="0 0 96 96" width="96px" height="96px">
<g id="surface582271">
<path style=" stroke:none;fill-rule:nonzero;fill:rgb(21.960784%,50.196081%,100%);fill-opacity:1;" d="M 8 24 C 3.628906 24 0 27.628906 0 32 L 0 64 C 0 68.371094 3.628906 72 8 72 L 88 72 C 92.371094 72 96 68.371094 96 64 L 96 32 C 96 27.628906 92.371094 24 88 24 Z M 8 32 L 88 32 L 88 64 L 8 64 Z M 16 48 L 16 56 L 24 56 L 24 48 Z M 32 48 L 32 56 L 40 56 L 40 48 Z M 48 48 L 48 56 L 56 56 L 56 48 Z M 48 48 "/>
</g>
</svg>
